<?xml version="1.0" encoding="UTF-8"?>
<svg viewBox="0 0 24 24" version="1.1" 
    xmlns="http://www.w3.org/2000/svg" 
    xmlns:xlink="http://www.w3.org/1999/xlink">
    <g stroke="none" stroke-width="1" fill="none" fill-rule="evenodd">
        <path d="M4.22223958,10 C5.44954862,10 6.44447917,10.9949306 6.44447917,12.2222396 C6.44447917,13.4495486 5.44954862,14.4444792 4.22223958,14.4444792 C2.99493055,14.4444792 2,13.4495486 2,12.2222396 C2,10.9949306 2.99493055,10 4.22223958,10 Z M12,10 C13.227309,10 14.2222396,10.9949306 14.2222396,12.2222396 C14.2222396,13.4495486 13.227309,14.4444792 12,14.4444792 C10.772691,14.4444792 9.77776042,13.4495486 9.77776042,12.2222396 C9.77776042,10.9949306 10.772691,10 12,10 Z M19.7777604,10 C21.0050694,10 22,10.9949306 22,12.2222396 C22,13.4495486 21.0050694,14.4444792 19.7777604,14.4444792 C18.5504514,14.4444792 17.5555208,13.4495486 17.5555208,12.2222396 C17.5555208,10.9949306 18.5504514,10 19.7777604,10 Z" id="Combined-Shape" fill="#091E42"></path>
    </g>
</svg>