<?xml version="1.0" encoding="UTF-8"?>
<svg width="24px" height="24px" viewBox="0 0 24 24" version="1.1" xmlns="http://www.w3.org/2000/svg" xmlns:xlink="http://www.w3.org/1999/xlink">
    <!-- Generator: Sketch 63.1 (92452) - https://sketch.com -->
    <title>Icons / Interface / Change</title>
    <desc>Created with Sketch.</desc>
    <g id="Icons-/-Interface-/-Change" stroke="none" stroke-width="1" fill="none" fill-rule="evenodd">
        <path d="M4.9259883,12.0109942 C5.21950666,11.7174758 5.69539393,11.7174758 5.98891228,12.0109942 C5.98907941,12.0111613 5.98924645,12.0113285 5.98941342,12.0114958 L6.06203832,12.0957828 C6.27987402,12.3899491 6.25524529,12.8070849 5.98841067,13.073416 L5.98841067,13.073416 L2.55312281,16.5022222 L23.2052865,16.5022222 C23.6186927,16.5022222 23.9538246,16.8373541 23.9538246,17.2507602 C23.9538246,17.6641664 23.6186927,17.9992982 23.2052865,17.9992982 L23.2052865,17.9992982 L2.55312281,17.9992982 L5.98516959,21.431345 C6.27662091,21.7227963 6.27662091,22.1953323 5.98516959,22.4867836 C5.69371827,22.7782349 5.22118231,22.7782349 4.92973099,22.4867836 L4.92973099,22.4867836 L0.217684211,17.7747368 C-0.0725614035,17.4827602 -0.0725614035,17.0112749 0.217684211,16.7192982 L0.217684211,16.7192982 Z M17.9636392,1.52959395 C18.2550942,1.23813898 18.7276361,1.23813898 19.019091,1.52959395 L19.019091,1.52959395 L23.7292632,6.23976608 C24.0195088,6.53174269 24.0195088,7.00322807 23.7292632,7.29520468 L23.7292632,7.29520468 L19.0172164,12.0072515 C18.7257651,12.2987028 18.2532291,12.2987028 17.9617778,12.0072515 C17.9616118,12.0070855 17.961446,12.0069195 17.9612802,12.0067534 L17.8891667,11.9230599 C17.6728651,11.6309652 17.6973204,11.216767 17.9622759,10.9523114 L17.9622759,10.9523114 L21.4013099,7.51976608 L0.749146199,7.51976608 C0.33574007,7.51976608 0.000608187135,7.1846342 0.000608187135,6.77122807 C0.000608187135,6.35782194 0.33574007,6.02269006 0.749146199,6.02269006 L0.749146199,6.02269006 L21.4013099,6.02269006 L17.9641523,2.5920176 C17.6711678,2.29958592 17.6701057,1.82520267 17.9617778,1.53146199 L17.9617778,1.53146199 Z" id="Combined-Shape" fill="#091E42"></path>
    </g>
</svg>