<?xml version="1.0" encoding="UTF-8"?>
<svg viewBox="0 0 24 24" version="1.1" 
    xmlns="http://www.w3.org/2000/svg" 
    xmlns:xlink="http://www.w3.org/1999/xlink">
    <g stroke="none" stroke-width="1" fill-rule="evenodd">
        <path d="M18.2692547,5.55227863 L18.363961,5.63603897 C18.7544853,6.02656326 18.7564433,6.65777029 18.3686296,7.04558399 L13.4135552,11.9997554 L18.3689108,16.9546972 C18.726598,17.3123845 18.7547149,17.875526 18.4476999,18.2692708 L18.363961,18.363961 C17.9736381,18.754284 17.3421917,18.7564053 16.9546972,18.3689108 L16.9546972,18.3689108 L11.9995552,13.4137554 L7.04558399,18.3686296 C6.68748006,18.7267335 6.12453296,18.7548189 5.73074529,18.4477214 L5.63603897,18.363961 C5.24551468,17.9734367 5.24355673,17.3422297 5.63137043,16.954416 L10.5855552,11.9997554 L5.63108922,7.04530278 C5.27340198,6.68761554 5.24468256,6.12507653 5.55216104,5.7308682 L5.63603897,5.63603897 C6.02636191,5.24571603 6.65780827,5.24359471 7.04530278,5.63108922 L7.04530278,5.63108922 L11.9995552,10.5847554 L16.954416,5.63137043 C17.3125199,5.27326649 17.875467,5.24518111 18.2692547,5.55227863 Z"></path>
    </g>
</svg>