<?xml version="1.0" encoding="UTF-8"?>
<svg width="24px" height="24px" viewBox="0 0 24 24" version="1.1" xmlns="http://www.w3.org/2000/svg" xmlns:xlink="http://www.w3.org/1999/xlink">
    <!-- Generator: Sketch 63.1 (92452) - https://sketch.com -->
    <title>Icons / Interface / Copy</title>
    <desc>Created with Sketch.</desc>
    <g id="Icons-/-Interface-/-Copy" stroke="none" stroke-width="1" fill="none" fill-rule="evenodd">
        <path d="M8.217386,3.990466 C8.217386,2.512306 9.220166,1 10.806516,1 L18.632576,1 C20.218976,1 21.221776,2.512306 21.221776,3.990466 L21.221776,13.622606 C21.221776,15.100706 20.218976,16.613006 18.632576,16.613006 L17.763076,16.613006 C17.293576,16.613006 16.913076,16.232506 16.913076,15.763006 C16.913076,15.293606 17.293576,14.913006 17.763076,14.913006 L18.632576,14.913006 C18.967276,14.913006 19.521776,14.508706 19.521776,13.622606 L19.521776,3.990466 C19.521776,3.104326 18.967276,2.699996 18.632576,2.699996 L10.806516,2.699996 C10.471886,2.699996 9.917386,3.104326 9.917386,3.990466 L9.917386,5.060706 C9.917386,5.530146 9.536836,5.910706 9.067386,5.910706 C8.597946,5.910706 8.217386,5.530146 8.217386,5.060706 L8.217386,3.990466 Z M5.849996,8.786956 C5.214876,8.786956 4.699996,9.301826 4.699996,9.936956 L4.699996,19.850006 C4.699996,20.485106 5.214876,21.000006 5.849996,21.000006 L13.154376,21.000006 C13.789476,21.000006 14.304376,20.485106 14.304376,19.850006 L14.304376,9.936956 C14.304376,9.301826 13.789476,8.786956 13.154376,8.786956 L5.849996,8.786956 Z M3,9.936956 C3,8.362946 4.275986,7.086956 5.849996,7.086956 L13.154376,7.086956 C14.728376,7.086956 16.004376,8.362946 16.004376,9.936956 L16.004376,19.850006 C16.004376,21.424006 14.728376,22.700006 13.154376,22.700006 L5.849996,22.700006 C4.275986,22.700006 3,21.424006 3,19.850006 L3,9.936956 Z" id="Shape" fill="#091E42"></path>
    </g>
</svg>