<?xml version="1.0" encoding="UTF-8"?>
<svg width="24px" height="24px" viewBox="0 0 24 24" version="1.1" xmlns="http://www.w3.org/2000/svg" xmlns:xlink="http://www.w3.org/1999/xlink">
    <!-- Generator: Sketch 63.1 (92452) - https://sketch.com -->
    <title>Icons / Interface / Expand</title>
    <desc>Created with Sketch.</desc>
    <defs>
        <path d="M4.75,7 C5.16421356,7 5.5,7.33578644 5.5,7.75 L5.5,17.25 C5.5,17.6642136 5.16421356,18 4.75,18 C4.33578644,18 4,17.6642136 4,17.25 L4,7.75 C4,7.33578644 4.33578644,7 4.75,7 Z M12.3353333,7 C12.5066667,7 12.6773333,7.06466667 12.8073333,7.194 C13.0666667,7.45333333 13.0666667,7.87733333 12.8073333,8.13666667 L12.8073333,8.13666667 L9.276,11.6686667 L18.3333333,11.6686667 C18.7,11.6686667 19,11.9686667 19,12.3346667 C19,12.7013333 18.7,13.0013333 18.3333333,13.0013333 L18.3333333,13.0013333 L9.276,13.0013333 L12.8053333,16.5306667 C13.0646667,16.79 13.0646667,17.2146667 12.8053333,17.4733333 C12.546,17.7333333 12.122,17.7333333 11.8626667,17.4733333 L11.8626667,17.4733333 L7.19933333,12.81 C7.198,12.8086667 7.196,12.808 7.194,12.8073333 C7.06466667,12.6773333 7,12.506 7,12.3346667 C7,12.1633333 7.06466667,11.992 7.194,11.8626667 L7.194,11.8626667 L7.19866667,11.86 L11.8646667,7.194 C11.9933333,7.06466667 12.1646667,7 12.3353333,7 Z" id="path-1"></path>
    </defs>
    <g id="Icons-/-Interface-/-Expand" stroke="none" stroke-width="1" fill="none" fill-rule="evenodd">
        <mask id="mask-2" fill="white">
            <use xlink:href="#path-1"></use>
        </mask>
        <use id="Combined-Shape" fill="#091E42" transform="translate(11.500000, 12.500000) scale(-1, 1) translate(-11.500000, -12.500000) " xlink:href="#path-1"></use>
    </g>
</svg>