<?xml version="1.0" encoding="UTF-8"?>
<svg width="24px" height="24px" viewBox="0 0 24 24" version="1.1" xmlns="http://www.w3.org/2000/svg" xmlns:xlink="http://www.w3.org/1999/xlink">
    <!-- Generator: Sketch 63.1 (92452) - https://sketch.com -->
    <title>Icons / Interface / Person</title>
    <desc>Created with Sketch.</desc>
    <g id="Icons-/-Interface-/-Person" stroke="none" stroke-width="1" fill="none" fill-rule="evenodd">
        <path d="M12,12 C14.48625,12 16.5,9.98625 16.5,7.5 C16.5,5.01375 14.48625,3 12,3 C9.51375,3 7.5,5.01375 7.5,7.5 C7.5,9.98625 9.51375,12 12,12 Z M12,5.25 C13.2375,5.25 14.25,6.2625 14.25,7.5 C14.25,8.7375 13.2375,9.75 12,9.75 C10.7625,9.75 9.75,8.7375 9.75,7.5 C9.75,6.2625 10.7625,5.25 12,5.25 Z M12,13.125 C8.99625,13.125 3,14.6325 3,17.625 L3,19.875 C3,20.49375 3.50625,21 4.125,21 L19.875,21 C20.49375,21 21,20.49375 21,19.875 L21,17.625 C21,14.6325 15.00375,13.125 12,13.125 Z M18.75,18.75 L5.25,18.75 L5.25,17.63625 C5.475,16.82625 8.9625,15.375 12,15.375 C15.0375,15.375 18.525,16.82625 18.75,17.625 L18.75,18.75 Z" id="Shape" fill="#091E42"></path>
    </g>
</svg>