<?xml version="1.0" encoding="UTF-8"?>
<svg width="24px" height="24px" viewBox="0 0 24 24" version="1.1" xmlns="http://www.w3.org/2000/svg" xmlns:xlink="http://www.w3.org/1999/xlink">
    <!-- Generator: Sketch 63.1 (92452) - https://sketch.com -->
    <title>Icons / Interface / Settings 1</title>
    <desc>Created with Sketch.</desc>
    <defs>
        <path d="M11.7016311,16.7008107 C8.93863111,16.7008107 6.69963111,14.4608107 6.69963111,11.6988107 C6.69963111,8.93581069 8.93863111,6.69681069 11.7016311,6.69681069 C14.4646311,6.69681069 16.7036311,8.93581069 16.7036311,11.6988107 C16.7036311,14.4608107 14.4646311,16.7008107 11.7016311,16.7008107 M20.0696311,13.5838107 C19.2866311,13.3118107 18.7236311,12.5748107 18.7236311,11.6988107 C18.7236311,10.8228107 19.2866311,10.0858107 20.0686311,9.81381069 C20.3056311,9.73181069 20.4516311,9.48081069 20.3836311,9.23981069 C20.1846311,8.53581069 19.9016311,7.86881069 19.5476311,7.24681069 C19.4296311,7.03881069 19.1706311,6.96181069 18.9496311,7.05181069 C18.5646311,7.20981069 18.1196311,7.25081069 17.6586311,7.13281069 C16.9846311,6.95881069 16.4336311,6.40981069 16.2556311,5.73681069 C16.1336311,5.27381069 16.1746311,4.82681069 16.3316311,4.43981069 C16.4206311,4.21981069 16.3436311,3.96081069 16.1356311,3.84281069 C15.5186311,3.49381069 14.8566311,3.21381069 14.1606311,3.01681069 C13.9186311,2.94881069 13.6686311,3.09381069 13.5866311,3.33081069 C13.3146311,4.11381069 12.5776311,4.67681069 11.7016311,4.67681069 C10.8266311,4.67681069 10.0886311,4.11381069 9.81763111,3.33181069 C9.73463111,3.09481069 9.48363111,2.94881069 9.24263111,3.01681069 C8.53463111,3.21681069 7.86363111,3.50181069 7.23863111,3.85881069 C7.03763111,3.97381069 6.95263111,4.22581069 7.04063111,4.44081069 C7.18763111,4.80181069 7.23263111,5.21381069 7.13863111,5.64381069 C6.98363111,6.34981069 6.42463111,6.94081069 5.72563111,7.12781069 C5.26763111,7.25081069 4.82763111,7.21181069 4.44563111,7.05981069 C4.22563111,6.97181069 3.96763111,7.04981069 3.85063111,7.25581069 C3.49763111,7.87781069 3.21563111,8.54581069 3.01763111,9.24981069 C2.94963111,9.48881069 3.09263111,9.73681069 3.32563111,9.82181069 C4.09663111,10.0998107 4.64863111,10.8318107 4.64863111,11.6988107 C4.64863111,12.5658107 4.09663111,13.2978107 3.32463111,13.5758107 C3.09163111,13.6598107 2.94963111,13.9078107 3.01663111,14.1468107 C3.19363111,14.7738107 3.43863111,15.3728107 3.73963111,15.9368107 C3.85863111,16.1588107 4.13463111,16.2348107 4.36363111,16.1298107 C4.95863111,15.8568107 5.70663111,15.8658107 6.46763111,16.3678107 C6.58463111,16.4448107 6.69263111,16.5528107 6.76963111,16.6688107 C7.29663111,17.4678107 7.28163111,18.2488107 6.96763111,18.8558107 C6.85263111,19.0788107 6.91963111,19.3568107 7.13563111,19.4838107 C7.78963111,19.8678107 8.49763111,20.1708107 9.24463111,20.3808107 C9.48563111,20.4488107 9.73363111,20.3048107 9.81463111,20.0678107 C10.0836311,19.2818107 10.8236311,18.7148107 11.7016311,18.7148107 C12.5796311,18.7148107 13.3196311,19.2818107 13.5886311,20.0678107 C13.6696311,20.3038107 13.9176311,20.4488107 14.1586311,20.3808107 C14.8956311,20.1738107 15.5946311,19.8748107 16.2426311,19.4978107 C16.4606311,19.3708107 16.5266311,19.0898107 16.4096311,18.8668107 C16.0916311,18.2588107 16.0726311,17.4738107 16.6006311,16.6718107 C16.6776311,16.5558107 16.7856311,16.4468107 16.9026311,16.3698107 C17.6746311,15.8588107 18.4296311,15.8568107 19.0276311,16.1398107 C19.2566311,16.2478107 19.5356311,16.1728107 19.6556311,15.9498107 C19.9596311,15.3858107 20.2046311,14.7858107 20.3836311,14.1568107 C20.4516311,13.9158107 20.3066311,13.6658107 20.0696311,13.5838107" id="path-1"></path>
    </defs>
    <g id="Icons-/-Interface-/-Settings-1" stroke="none" stroke-width="1" fill="none" fill-rule="evenodd">
        <mask id="mask-2" fill="white">
            <use xlink:href="#path-1"></use>
        </mask>
        <use id="Fill-1" fill="#091E42" xlink:href="#path-1"></use>
    </g>
</svg>