<?xml version="1.0" encoding="UTF-8"?>
<svg viewBox="0 0 24 24" version="1.1" xmlns="http://www.w3.org/2000/svg" xmlns:xlink="http://www.w3.org/1999/xlink">
    <g stroke="none" stroke-width="1" fill-rule="evenodd">
        <path d="M5.11111111,19.7777778 C5.11111111,21 6.11111111,22 7.33333333,22 L16.2222222,22 C17.4444444,22 18.4444444,21 18.4444444,19.7777778 L18.4444444,8.66666667 C18.4444444,7.44444444 17.4444444,6.44444444 16.2222222,6.44444444 L7.33333333,6.44444444 C6.11111111,6.44444444 5.11111111,7.44444444 5.11111111,8.66666667 L5.11111111,19.7777778 Z M8.44444444,8.66666667 L15.1111111,8.66666667 C15.7222222,8.66666667 16.2222222,9.16666667 16.2222222,9.77777778 L16.2222222,18.6666667 C16.2222222,19.2777778 15.7222222,19.7777778 15.1111111,19.7777778 L8.44444444,19.7777778 C7.83333333,19.7777778 7.33333333,19.2777778 7.33333333,18.6666667 L7.33333333,9.77777778 C7.33333333,9.16666667 7.83333333,8.66666667 8.44444444,8.66666667 Z M15.6666667,3.11111111 L14.8777778,2.32222222 C14.6777778,2.12222222 14.3888889,2 14.1,2 L9.45555556,2 C9.16666667,2 8.87777778,2.12222222 8.67777778,2.32222222 L7.88888889,3.11111111 L5.11111111,3.11111111 C4.5,3.11111111 4,3.61111111 4,4.22222222 C4,4.83333333 4.5,5.33333333 5.11111111,5.33333333 L18.4444444,5.33333333 C19.0555556,5.33333333 19.5555556,4.83333333 19.5555556,4.22222222 C19.5555556,3.61111111 19.0555556,3.11111111 18.4444444,3.11111111 L15.6666667,3.11111111 Z"></path>
    </g>
</svg>