<?xml version="1.0" encoding="UTF-8"?>
<svg width="24px" height="24px" viewBox="0 0 24 24" version="1.1" xmlns="http://www.w3.org/2000/svg" xmlns:xlink="http://www.w3.org/1999/xlink">
    <!-- Generator: Sketch 63.1 (92452) - https://sketch.com -->
    <title>Icons / Interface / Сollapse</title>
    <desc>Created with Sketch.</desc>
    <defs>
        <path d="M5.75,7 C6.16421356,7 6.5,7.33578644 6.5,7.75 L6.5,17.25 C6.5,17.6642136 6.16421356,18 5.75,18 C5.33578644,18 5,17.6642136 5,17.25 L5,7.75 C5,7.33578644 5.33578644,7 5.75,7 Z M13.3353333,7 C13.5066667,7 13.6773333,7.06466667 13.8073333,7.194 C14.0666667,7.45333333 14.0666667,7.87733333 13.8073333,8.13666667 L13.8073333,8.13666667 L10.276,11.6686667 L19.3333333,11.6686667 C19.7,11.6686667 20,11.9686667 20,12.3346667 C20,12.7013333 19.7,13.0013333 19.3333333,13.0013333 L19.3333333,13.0013333 L10.276,13.0013333 L13.8053333,16.5306667 C14.0646667,16.79 14.0646667,17.2146667 13.8053333,17.4733333 C13.546,17.7333333 13.122,17.7333333 12.8626667,17.4733333 L12.8626667,17.4733333 L8.19933333,12.81 C8.198,12.8086667 8.196,12.808 8.194,12.8073333 C8.06466667,12.6773333 8,12.506 8,12.3346667 C8,12.1633333 8.06466667,11.992 8.194,11.8626667 L8.194,11.8626667 L8.19866667,11.86 L12.8646667,7.194 C12.9933333,7.06466667 13.1646667,7 13.3353333,7 Z" id="path-1"></path>
    </defs>
    <g id="Icons-/-Interface-/-Сollapse" stroke="none" stroke-width="1" fill="none" fill-rule="evenodd">
        <mask id="mask-2" fill="white">
            <use xlink:href="#path-1"></use>
        </mask>
        <use id="Combined-Shape" fill="#091E42" xlink:href="#path-1"></use>
    </g>
</svg>